<svg xmlns="http://www.w3.org/2000/svg" version="1.1" xmlns:xlink="http://www.w3.org/1999/xlink" xmlns:svgjs="http://svgjs.dev/svgjs" viewBox="0 0 1422 800"><defs><filter id="uuunion-blur" x="-100%" y="-100%" width="400%" height="400%" color-interpolation-filters="sRGB">
    <feGaussianBlur in="SourceGraphic" stdDeviation="7.5 0" result="blur"></feGaussianBlur>
    <feDropShadow stdDeviation="12.307692307692308" in="blur" dx="10" dy="10" flood-color="hsl(316, 73%, 52%)" flood-opacity="0.25" x="0%" y="0%" width="100%" height="100%"></feDropShadow>
  </filter><filter id="uuunion-blur2" x="-100%" y="-100%" width="400%" height="400%" color-interpolation-filters="sRGB">
    <feGaussianBlur in="SourceGraphic" stdDeviation="7.5 0" result="blur"></feGaussianBlur>
    <feDropShadow stdDeviation="12.307692307692308" in="blur" dx="-10" dy="-10" flood-color="hsl(316, 73%, 52%)" flood-opacity="0.25" x="0%" y="0%" width="100%" height="100%"></feDropShadow>
  </filter><linearGradient gradientTransform="rotate(0, 0.5, 0.5)" x1="50%" y1="0%" x2="50%" y2="100%" id="uuunion-grad"><stop stop-color="hsl(37, 99%, 67%)" offset="10%"></stop><stop stop-color="hsl(316, 73%, 52%)" offset="90%"></stop></linearGradient><linearGradient gradientTransform="rotate(135, 0.5, 0.5)" x1="50%" y1="0%" x2="50%" y2="100%" id="uuunion-grad2"><stop stop-color="hsl(37, 99%, 67%)" offset="25%"></stop><stop stop-color="hsl(316, 73%, 52%)" offset="100%"></stop></linearGradient><linearGradient gradientTransform="rotate(333, 0.5, 0.5)" x1="50%" y1="0%" x2="50%" y2="100%" id="uuunion-grad3"><stop stop-color="hsl(37, 99%, 67%)" offset="0%"></stop><stop stop-color="hsl(316, 73%, 52%)" offset="75%"></stop></linearGradient></defs><path d="M-131.84 -88.08Q-118.85 -86.93 -105.85 -85.33 -92.85 -83.38 -79.85 -81.21 -66.85 -78.96 -53.85 -76.78 -40.85 -74.8 -27.85 -73.17 -14.85 -71.99 -1.85 -71.32 11.13 -71.23 24.13 -71.7 37.13 -72.72 50.13 -74.22 63.13 -76.09 76.13 -78.22 89.13 -80.46 102.13 -82.67 115.13 -84.71 128.13 -86.44 141.12 -87.75 154.12 -88.55 167.12 -88.79 180.12 -88.46 193.12 -87.57 206.12 -86.19 219.12 -84.4 232.12 -82.33 245.12 -80.1 258.12 -77.87 271.12 -75.77 284.11 -73.95 297.11 -72.53 310.11 -71.59 323.11 -71.2 336.11 -71.39 349.11 -72.14 362.11 -73.4 375.11 -75.1 388.11 -77.11 401.11 -79.32 414.1 -81.56 427.1 -83.71 440.1 -85.61 453.1 -87.14 466.1 -88.21 479.1 -88.74 492.1 -88.7 505.1 -88.09 518.1 -86.95 531.1 -85.36 544.1 -83.41 557.09 -81.24 570.09 -79 583.09 -76.81 596.09 -74.83 609.09 -73.2 622.09 -72 635.09 -71.33 648.09 -71.22 661.09 -71.69 674.09 -72.7 687.09 -74.19 700.08 -76.06 713.08 -78.18 726.08 -80.42 739.08 -82.64 752.08 -84.68 765.08 -86.42 778.08 -87.73 791.08 -88.54 804.08 -88.79 817.08 -88.47 830.07 -87.59 843.07 -86.22 856.07 -84.44 869.07 -82.37 882.07 -80.14 895.07 -77.9 908.07 -75.8 921.07 -73.98 934.07 -72.55 947.07 -71.6 960.07 -71.21 973.07 -71.38 986.06 -72.12 999.06 -73.38 1012.06 -75.07 1025.06 -77.08 1038.06 -79.28 1051.06 -81.52 1064.06 -83.67 1077.06 -85.58 1090.06 -87.12 1103.06 -88.2 1116.06 -88.74 1129.05 -88.71 1142.05 -88.11 1155.05 -86.97 1168.05 -85.39 1181.05 -83.45 1194.05 -81.28 1207.05 -79.03 1220.05 -76.85 1233.05 -74.87 1246.05 -73.22 1259.05 -72.02 1272.04 -71.34 1285.04 -71.22 1298.04 -71.68 1311.04 -72.68 1324.04 -74.16 1337.04 -76.02 1350.04 -78.14 1363.04 -80.39 1376.04 -82.6 1389.04 -84.65 1402.04 -86.39 1415.04 -87.71 1428.03 -88.53 1441.03 -88.79 1454.03 -88.48 1467.03 -87.61 1480.03 -86.25 1493.03 -84.47 1506.03 -82.4 1519.03 -80.18 1532.03 -77.94 1535.39 -62.89 1540.33 -47.84 1546.57 -32.78 1553.77 -17.73 1561.55 -2.68 1569.47 12.36 1577.1 27.42 1584.03 42.47 1589.87 57.52 1594.31 72.57 1597.1 87.63 1598.09 102.68 1597.23 117.73 1594.56 132.78 1590.23 147.84 1584.48 162.89 1577.62 177.94 1570.02 193 1562.11 208.05 1554.31 223.1 1547.05 238.15 1540.73 253.21 1535.69 268.26 1532.21 283.31 1530.48 298.36 1530.59 313.42 1532.54 328.47 1536.22 343.52 1541.43 358.57 1547.89 373.63 1555.23 388.68 1563.07 403.73 1570.97 418.78 1578.5 433.84 1585.24 448.89 1590.84 463.94 1594.98 478.99 1597.43 494.05 1598.07 509.1 1596.85 524.15 1593.85 539.2 1589.23 554.26 1583.24 569.31 1576.21 584.36 1568.52 599.41 1560.59 614.47 1552.86 629.52 1545.75 644.57 1539.65 659.62 1534.89 674.68 1531.74 689.73 1530.36 704.78 1530.82 719.83 1533.12 734.89 1537.11 749.94 1542.58 764.99 1549.24 780.04 1556.71 795.1 1564.59 810.15 1572.45 825.2 1579.86 840.25 1586.42 855.31 1586.84 874.94 1568.27 873.65 1554.62 868.2 1540.96 863.52 1527.31 859.91 1513.65 857.62 1500 856.8 1486.34 857.49 1472.68 859.65 1459.03 863.14 1445.37 867.73 1431.72 873.12 1418.06 878.96 1404.41 884.88 1390.75 890.47 1377.1 895.37 1363.44 899.28 1349.79 901.92 1336.13 903.13 1322.48 902.82 1308.82 901.03 1295.17 897.86 1281.51 893.52 1267.86 888.3 1254.2 882.53 1240.55 876.6 1226.89 870.89 1213.23 865.78 1199.58 861.59 1185.92 858.61 1172.27 857.03 1158.61 856.95 1144.96 858.37 1131.3 861.21 1117.65 865.27 1103.99 870.3 1090.34 875.96 1076.68 881.89 1063.03 887.69 1049.37 892.99 1035.72 897.44 1022.06 900.75 1008.41 902.7 994.75 903.17 981.1 902.12 967.44 899.63 953.79 895.85 940.13 891.04 926.47 885.51 912.82 879.61 899.16 873.74 885.51 868.28 871.85 863.59 858.2 859.96 844.54 857.65 830.89 856.8 817.23 857.46 803.58 859.6 789.92 863.07 776.27 867.64 762.61 873.03 748.96 878.87 735.3 884.78 721.65 890.38 707.99 895.3 694.34 899.22 680.68 901.89 667.03 903.12 653.37 902.84 639.72 901.07 626.06 897.92 612.4 893.6 598.75 888.39 585.09 882.63 571.44 876.7 557.78 870.98 544.13 865.86 530.47 861.66 516.82 858.65 503.16 857.04 489.51 856.94 475.85 858.33 462.2 861.15 448.54 865.2 434.89 870.21 421.23 875.86 407.58 881.79 393.92 887.59 380.27 892.9 366.61 897.37 352.96 900.7 339.3 902.68 325.65 903.17 311.99 902.15 298.34 899.68 284.68 895.93 271.03 891.13 257.37 885.6 243.71 879.71 230.06 873.84 216.4 868.37 202.75 863.66 189.09 860.02 175.44 857.68 161.78 856.8 148.13 857.44 134.47 859.55 120.82 863 107.16 867.56 93.51 872.93 79.85 878.77 66.2 884.68 52.54 890.29 38.89 895.22 25.23 899.16 11.58 901.85 -2.07 903.11 -15.72 902.86 -29.38 901.11 -43.03 897.98 -56.69 893.68 -70.34 888.48 -84 882.73 -97.65 876.8 -111.31 871.08 -124.96 865.94 -138.62 861.72 -152.27 858.69 -151.04 843.9 -149.33 829.1 -147.22 814.31 -144.84 799.52 -142.31 784.72 -139.78 769.93 -137.38 755.14 -135.24 740.34 -133.48 725.55 -132.19 710.76 -131.46 695.96 -131.31 681.17 -131.75 666.38 -132.77 651.58 -134.3 636.79 -136.26 622 -138.54 607.2 -141.03 592.41 -143.57 577.62 -146.05 562.82 -148.31 548.03 -150.23 533.24 -151.72 518.44 -152.68 503.65 -153.07 488.86 -152.87 474.06 -152.08 459.27 -150.75 444.48 -148.95 429.68 -146.78 414.89 -144.36 400.1 -141.82 385.3 -139.3 370.51 -136.94 355.72 -134.87 340.92 -133.19 326.13 -132.01 311.34 -131.38 296.54 -131.35 281.75 -131.9 266.96 -133.02 252.16 -134.64 237.37 -136.67 222.58 -139.01 207.78 -141.51 192.99 -144.06 178.2 -146.5 163.4 -148.71 148.61 -150.56 133.82 -151.95 119.02 -152.8 104.23 -153.08 89.44 -152.76 74.64 -151.86 59.85 -150.44 45.05 -148.56 30.26 -146.33 15.47 -143.88 0.67 -141.33 -14.11 -138.84 -28.9 -136.52 -43.7 -134.51 -58.49 -132.93 -73.28 -131.84 -88.08" fill="url(#uuunion-grad)"></path><path d="M-131.85 -88.08Q-132.94 -73.28 -134.52 -58.49 -136.53 -43.7 -138.84 -28.9 -141.34 -14.11 -143.89 0.67 -146.34 15.47 -148.57 30.26 -150.45 45.05 -151.87 59.85 -152.77 74.64 -153.09 89.43 -152.81 104.23 -151.96 119.02 -150.57 133.81 -148.72 148.61 -146.51 163.4 -144.07 178.19 -141.52 192.99 -139.02 207.78 -136.68 222.57 -134.65 237.37 -133.03 252.16 -131.91 266.95 -131.36 281.75 -131.39 296.54 -132.02 311.33 -133.2 326.13 -134.88 340.92 -136.95 355.72 -139.31 370.51 -141.83 385.3 -132.95 386.59 -124.07 388.27 -115.19 390.3 -106.31 392.6 -97.43 395.13 -88.55 397.79 -79.68 400.52 -70.8 403.23 -61.92 405.85 -53.04 408.29 -44.16 410.5 -35.28 412.4 -26.4 413.94 -17.52 415.07 -0.73 415.93 2.22 415.98 13.64 412.32 25.02 407.96 36.38 402.97 47.71 397.43 59 391.45 70.27 385.17 81.5 378.73 92.7 372.29 103.87 365.98 115.01 359.96 126.13 354.36 137.21 349.28 148.26 344.81 159.29 341.01 170.29 337.89 181.27 335.47 192.22 333.7 203.15 332.52 214.06 331.83 224.95 331.53 235.82 331.48 246.68 331.54 257.52 331.56 268.35 331.41 279.17 330.95 289.98 330.07 300.78 328.66 311.58 326.65 322.38 323.99 333.18 320.66 343.98 316.69 354.78 312.11 365.59 306.99 376.4 301.42 387.23 295.53 398.07 289.43 408.92 283.26 419.79 277.16 430.68 271.27 441.59 265.7 452.51 260.57 463.46 255.97 474.44 251.95 485.44 248.56 496.47 245.8 507.53 243.65 518.61 242.06 529.73 240.96 540.88 240.26 552.07 239.84 563.28 239.57 574.53 239.34 585.82 239 597.14 238.44 608.49 237.53 619.88 236.18 631.3 234.31 642.76 231.87 654.25 228.83 665.77 225.2 677.33 220.99 688.91 216.27 700.53 211.1 712.18 205.59 723.85 199.84 735.56 193.98 747.28 188.13 759.03 182.41 770.8 176.93 782.59 171.82 794.4 167.14 806.23 162.97 818.06 159.35 829.91 156.3 841.76 153.81 853.63 151.85 865.49 150.37 877.36 149.28 889.22 148.49 901.08 147.89 912.93 147.36 924.76 146.79 936.59 146.07 948.4 145.08 960.19 143.73 971.96 141.95 983.7 139.67 995.42 136.86 1007.1 133.52 1018.76 129.64 1030.37 125.29 1041.95 120.5 1053.49 115.37 1064.98 109.98 1076.43 104.44 1087.83 98.86 1099.19 93.35 1110.49 88.02 1121.73 82.97 1132.92 78.28 1144.05 74.02 1155.13 70.23 1166.14 66.95 1177.1 64.18 1187.99 61.89 1198.82 60.04 1209.58 58.58 1220.28 57.42 1230.92 56.47 1241.5 55.64 1252.01 54.81 1262.45 53.89 1272.84 52.77 1283.16 51.37 1293.42 49.61 1303.62 47.43 1313.76 44.79 1323.84 41.68 1333.87 38.1 1343.84 34.07 1353.76 29.63 1363.64 24.86 1373.46 19.83 1383.25 14.63 1392.99 9.34 1402.69 4.08 1412.36 -1.05 1422 -5.99 1413.85 -23.33 1406.31 -40.67 1399.93 -58.02 1395.2 -75.36 1392.45 -92.7 1391.9 -110.04 1393.59 -127.39 1397.39 -144.73 1385.34 -143.11 1373.29 -141.32 1361.24 -139.46 1349.19 -137.63 1337.14 -135.92 1325.09 -134.45 1313.05 -133.28 1301 -132.49 1288.95 -132.12 1276.9 -132.19 1264.85 -132.69 1252.8 -133.6 1240.75 -134.87 1228.7 -136.42 1216.66 -138.17 1204.61 -140.03 1192.56 -141.88 1180.51 -143.63 1168.46 -145.17 1156.41 -146.43 1144.36 -147.32 1132.31 -147.81 1120.26 -147.86 1108.22 -147.47 1096.17 -146.67 1084.12 -145.49 1072.07 -144.01 1060.02 -142.3 1047.97 -140.46 1035.92 -138.6 1023.87 -136.81 1011.83 -135.21 999.78 -133.87 987.73 -132.87 975.68 -132.27 963.63 -132.1 951.58 -132.37 939.53 -133.07 927.48 -134.15 915.43 -135.56 903.39 -137.22 891.34 -139.03 879.29 -140.89 867.24 -142.71 855.19 -144.37 843.14 -145.79 831.09 -146.89 819.04 -147.6 806.99 -147.89 794.95 -147.74 782.9 -147.15 770.85 -146.17 758.8 -144.84 746.75 -143.24 734.7 -141.46 722.65 -139.6 710.6 -137.76 698.56 -136.04 686.51 -134.55 674.46 -133.36 662.41 -132.54 650.36 -132.13 638.31 -132.17 626.26 -132.64 614.21 -133.52 602.16 -134.77 590.12 -136.3 578.07 -138.04 566.02 -139.89 553.97 -141.75 541.92 -143.51 529.87 -145.07 517.82 -146.35 505.77 -147.27 493.73 -147.79 481.68 -147.87 469.63 -147.52 457.58 -146.74 445.53 -145.59 433.48 -144.12 421.43 -142.43 409.38 -140.6 397.33 -138.73 385.29 -136.94 373.24 -135.32 361.19 -133.95 349.14 -132.93 337.09 -132.3 325.04 -132.1 312.99 -132.34 300.94 -133 288.89 -134.06 276.85 -135.45 264.8 -137.09 252.75 -138.89 240.7 -140.76 228.65 -142.58 216.6 -144.26 204.55 -145.7 192.5 -146.82 180.46 -147.57 168.41 -147.88 156.36 -147.76 144.31 -147.21 132.26 -146.25 120.21 -144.94 108.16 -143.36 96.11 -141.59 84.06 -139.73 72.02 -137.89 59.97 -136.16 47.92 -134.65 35.87 -133.43 23.82 -132.58 11.77 -132.15 -0.27 -132.15 -12.32 -132.59 -24.36 -133.45 -36.41 -134.67 -48.46 -136.18 -60.51 -137.91 -72.56 -139.76 -84.61 -141.62 -96.66 -143.39 -108.71 -144.96 -120.76 -146.27 -136.76 -140.06 -137.16 -117.99 -134.21 -103.05 -131.85 -88.08" fill="url(#uuunion-grad2)" filter="url(#uuunion-blur)"></path><path d="M1393.07 311.13Q1401.73 309.24 1410.4 307.67 1427.73 305.84 1445.05 305.27 1462.38 306.79 1479.71 309.48 1488.37 311.41 1497.04 313.58 1505.7 315.95 1514.36 318.43 1523.03 320.95 1531.69 323.45 1535.49 341.01 1541.43 358.57 1549.06 376.13 1557.81 393.7 1567.04 411.26 1576.05 428.82 1584.19 446.38 1590.84 463.94 1595.51 481.5 1597.85 499.06 1597.69 516.62 1595.04 534.19 1590.11 551.75 1583.24 569.31 1574.96 586.87 1565.88 604.43 1556.68 621.99 1548.03 639.55 1540.59 657.11 1534.89 674.68 1531.38 692.24 1530.31 709.8 1531.75 727.36 1535.6 744.92 1541.58 762.48 1549.24 780.04 1558.01 797.6 1567.24 815.17 1576.24 832.73 1584.35 850.29 1587.01 873.93 1570.53 874.6 1558.01 869.49 1545.48 864.96 1532.96 861.26 1520.43 858.59 1507.91 857.09 1495.38 856.86 1482.85 857.9 1470.33 860.16 1457.8 863.51 1445.28 867.76 1432.75 872.69 1420.23 878.02 1407.7 883.46 1395.18 888.71 1382.65 893.48 1370.13 897.51 1357.6 900.57 1345.08 902.5 1332.55 903.19 1320.02 902.61 1307.5 900.78 1294.97 897.8 1282.45 893.85 1269.92 889.13 1257.4 883.91 1244.87 878.48 1232.35 873.12 1219.82 868.15 1207.3 863.83 1194.77 860.4 1182.25 858.04 1169.72 856.9 1157.2 857.02 1144.67 858.42 1132.14 860.99 1119.62 864.62 1107.09 869.09 1094.57 874.16 1082.04 879.55 1069.52 884.97 1056.99 890.11 1044.47 894.7 1031.94 898.48 1019.42 901.23 1006.89 902.82 994.37 903.16 981.84 902.22 969.31 900.05 956.79 896.78 944.26 892.59 931.74 887.7 919.21 882.39 906.69 876.95 894.16 871.68 881.64 866.86 869.11 862.76 856.59 859.62 844.06 857.6 831.54 856.8 819.01 857.29 806.49 859.02 793.96 861.91 781.43 865.8 768.91 870.47 756.38 875.66 743.86 881.09 731.33 886.46 718.81 891.47 706.28 895.85 693.76 899.36 681.23 901.8 668.71 903.05 656.18 903.02 643.66 901.73 631.13 899.24 618.6 895.69 606.08 891.28 593.55 886.24 581.03 880.87 568.5 875.44 555.98 870.27 543.45 865.63 530.93 861.78 518.4 858.93 505.88 857.25 493.35 856.81 480.83 857.65 468.3 859.73 455.78 862.91 443.25 867.04 430.72 871.88 418.2 877.17 405.67 882.61 393.15 887.91 380.62 892.77 368.1 896.93 355.57 900.16 343.05 902.28 330.52 903.17 318 902.78 305.47 901.15 292.95 898.34 280.42 894.53 267.89 889.91 255.37 884.76 242.84 879.33 230.32 873.95 217.79 868.9 205.27 864.46 192.74 860.87 180.22 858.34 167.69 856.99 155.17 856.92 142.64 858.11 130.12 860.51 117.59 863.99 105.07 868.34 92.54 873.33 80.01 878.69 67.49 884.13 54.96 889.33 42.44 894.02 29.91 897.94 17.39 900.87 -1.14 897.85 -6.5 882.89 -5.71 872.74 -4.81 862.59 -3.81 852.44 -2.75 842.29 -0.83 827.07 0.47 822 13.61 815.02 26.68 806.83 39.67 797.56 52.58 787.37 65.4 776.51 78.15 765.24 90.81 753.86 103.4 742.66 115.91 731.93 128.35 721.91 140.73 712.82 153.04 704.81 165.31 697.97 177.54 692.32 189.74 687.83 201.91 684.38 214.06 681.79 226.21 679.86 238.37 678.32 250.54 676.91 262.73 675.34 274.95 673.36 287.21 670.71 299.52 667.19 311.88 662.67 324.3 657.05 336.78 650.3 349.32 642.46 361.93 633.64 374.61 623.99 387.35 613.72 400.16 603.05 413.03 592.26 425.96 581.59 438.95 571.31 451.98 561.64 465.05 552.76 478.14 544.83 491.27 537.92 504.4 532.08 517.53 527.25 530.66 523.35 543.76 520.24 556.83 517.73 569.86 515.59 582.83 513.59 595.74 511.49 608.57 509.04 621.32 506.03 633.98 502.28 646.54 497.66 658.98 492.08 671.32 485.52 683.54 478 695.64 469.61 707.62 460.47 719.48 450.77 731.23 440.7 742.86 430.5 754.38 420.38 765.8 410.57 777.12 401.26 788.37 392.64 799.54 384.82 808.97 382.91 818.4 381.55 827.81 380.75 837.22 380.48 846.62 380.72 856.01 381.4 865.38 382.47 874.76 383.84 884.12 385.41 893.47 387.1 902.82 388.79 912.15 390.38 921.48 391.79 930.8 392.9 940.12 393.65 949.42 393.96 958.72 393.78 968.02 393.08 977.3 391.83 986.58 390.04 995.86 387.73 1005.12 384.93 1014.39 381.71 1023.64 378.12 1032.89 374.26 1042.14 370.22 1051.38 366.08 1060.62 361.96 1069.86 357.95 1079.09 354.15 1088.31 350.64 1097.54 347.51 1106.76 344.82 1115.98 342.62 1125.2 340.93 1134.41 339.78 1143.62 339.16 1152.84 339.05 1162.05 339.4 1171.26 340.15 1180.47 341.25 1189.68 342.6 1198.89 344.11 1208.11 345.7 1217.32 347.25 1226.53 348.67 1235.75 349.87 1244.97 350.76 1254.19 351.28 1263.42 351.35 1272.65 350.94 1281.88 350.01 1291.11 348.57 1300.35 346.6 1309.6 344.15 1318.85 341.25 1328.1 337.97 1337.36 334.37 1346.63 330.53 1355.9 326.55 1365.18 322.53 1374.47 318.55 1383.77 314.72 1393.07 311.13" fill="url(#uuunion-grad3)" filter="url(#uuunion-blur2)"></path></svg>