<svg xmlns="http://www.w3.org/2000/svg" version="1.1" xmlns:xlink="http://www.w3.org/1999/xlink"
    xmlns:svgjs="http://svgjs.dev/svgjs" viewBox="0 0 800 800" opacity="0.49" width="800"
    height="800">
    <g stroke-width="2.25" stroke="hsla(0, 0%, 0%, 1.00)" fill="none">
        <rect width="80" height="5.421052631578947" x="-40" y="-2.7105263157894735" stroke="none"
            fill="hsla(0, 0%, 0%, 1.00)" rx="2.7105263157894735"></rect>
        <rect width="5.421052631578947" height="80" x="-2.7105263157894735" y="-40" stroke="none"
            fill="hsla(0, 0%, 0%, 1.00)" rx="2.7105263157894735"></rect>
        <rect width="80" height="5.421052631578947" x="120" y="-2.7105263157894735" stroke="none"
            fill="hsla(0, 0%, 0%, 1.00)" rx="2.7105263157894735"></rect>
        <rect width="5.421052631578947" height="80" x="157.28947368421052" y="-40" stroke="none"
            fill="hsla(0, 0%, 0%, 1.00)" rx="2.7105263157894735"></rect>
        <rect width="80" height="5.421052631578947" x="280" y="-2.7105263157894735" stroke="none"
            fill="hsla(0, 0%, 0%, 1.00)" rx="2.7105263157894735"></rect>
        <rect width="5.421052631578947" height="80" x="317.2894736842105" y="-40" stroke="none"
            fill="hsla(0, 0%, 0%, 1.00)" rx="2.7105263157894735"></rect>
        <rect width="80" height="5.421052631578947" x="440" y="-2.7105263157894735" stroke="none"
            fill="hsla(0, 0%, 0%, 1.00)" rx="2.7105263157894735"></rect>
        <rect width="5.421052631578947" height="80" x="477.2894736842105" y="-40" stroke="none"
            fill="hsla(0, 0%, 0%, 1.00)" rx="2.7105263157894735"></rect>
        <rect width="80" height="5.421052631578947" x="600" y="-2.7105263157894735" stroke="none"
            fill="hsla(0, 0%, 0%, 1.00)" rx="2.7105263157894735"></rect>
        <rect width="5.421052631578947" height="80" x="637.2894736842105" y="-40" stroke="none"
            fill="hsla(0, 0%, 0%, 1.00)" rx="2.7105263157894735"></rect>
        <rect width="80" height="5.421052631578947" x="760" y="-2.7105263157894735" stroke="none"
            fill="hsla(0, 0%, 0%, 1.00)" rx="2.7105263157894735"></rect>
        <rect width="5.421052631578947" height="80" x="797.2894736842105" y="-40" stroke="none"
            fill="hsla(0, 0%, 0%, 1.00)" rx="2.7105263157894735"></rect>
        <rect width="80" height="5.421052631578947" x="-40" y="157.28947368421052" stroke="none"
            fill="hsla(0, 0%, 0%, 1.00)" rx="2.7105263157894735"></rect>
        <rect width="5.421052631578947" height="80" x="-2.7105263157894735" y="120" stroke="none"
            fill="hsla(0, 0%, 0%, 1.00)" rx="2.7105263157894735"></rect>
        <rect width="80" height="5.421052631578947" x="120" y="157.28947368421052" stroke="none"
            fill="hsla(0, 0%, 0%, 1.00)" rx="2.7105263157894735"></rect>
        <rect width="5.421052631578947" height="80" x="157.28947368421052" y="120" stroke="none"
            fill="hsla(0, 0%, 0%, 1.00)" rx="2.7105263157894735"></rect>
        <rect width="80" height="5.421052631578947" x="280" y="157.28947368421052" stroke="none"
            fill="hsla(0, 0%, 0%, 1.00)" rx="2.7105263157894735"></rect>
        <rect width="5.421052631578947" height="80" x="317.2894736842105" y="120" stroke="none"
            fill="hsla(0, 0%, 0%, 1.00)" rx="2.7105263157894735"></rect>
        <rect width="80" height="5.421052631578947" x="440" y="157.28947368421052" stroke="none"
            fill="hsla(0, 0%, 0%, 1.00)" rx="2.7105263157894735"></rect>
        <rect width="5.421052631578947" height="80" x="477.2894736842105" y="120" stroke="none"
            fill="hsla(0, 0%, 0%, 1.00)" rx="2.7105263157894735"></rect>
        <rect width="80" height="5.421052631578947" x="600" y="157.28947368421052" stroke="none"
            fill="hsla(0, 0%, 0%, 1.00)" rx="2.7105263157894735"></rect>
        <rect width="5.421052631578947" height="80" x="637.2894736842105" y="120" stroke="none"
            fill="hsla(0, 0%, 0%, 1.00)" rx="2.7105263157894735"></rect>
        <rect width="80" height="5.421052631578947" x="760" y="157.28947368421052" stroke="none"
            fill="hsla(0, 0%, 0%, 1.00)" rx="2.7105263157894735"></rect>
        <rect width="5.421052631578947" height="80" x="797.2894736842105" y="120" stroke="none"
            fill="hsla(0, 0%, 0%, 1.00)" rx="2.7105263157894735"></rect>
        <rect width="80" height="5.421052631578947" x="-40" y="317.2894736842105" stroke="none"
            fill="hsla(0, 0%, 0%, 1.00)" rx="2.7105263157894735"></rect>
        <rect width="5.421052631578947" height="80" x="-2.7105263157894735" y="280" stroke="none"
            fill="hsla(0, 0%, 0%, 1.00)" rx="2.7105263157894735"></rect>
        <rect width="80" height="5.421052631578947" x="120" y="317.2894736842105" stroke="none"
            fill="hsla(0, 0%, 0%, 1.00)" rx="2.7105263157894735"></rect>
        <rect width="5.421052631578947" height="80" x="157.28947368421052" y="280" stroke="none"
            fill="hsla(0, 0%, 0%, 1.00)" rx="2.7105263157894735"></rect>
        <rect width="80" height="5.421052631578947" x="280" y="317.2894736842105" stroke="none"
            fill="hsla(0, 0%, 0%, 1.00)" rx="2.7105263157894735"></rect>
        <rect width="5.421052631578947" height="80" x="317.2894736842105" y="280" stroke="none"
            fill="hsla(0, 0%, 0%, 1.00)" rx="2.7105263157894735"></rect>
        <rect width="80" height="5.421052631578947" x="440" y="317.2894736842105" stroke="none"
            fill="hsla(0, 0%, 0%, 1.00)" rx="2.7105263157894735"></rect>
        <rect width="5.421052631578947" height="80" x="477.2894736842105" y="280" stroke="none"
            fill="hsla(0, 0%, 0%, 1.00)" rx="2.7105263157894735"></rect>
        <rect width="80" height="5.421052631578947" x="600" y="317.2894736842105" stroke="none"
            fill="hsla(0, 0%, 0%, 1.00)" rx="2.7105263157894735"></rect>
        <rect width="5.421052631578947" height="80" x="637.2894736842105" y="280" stroke="none"
            fill="hsla(0, 0%, 0%, 1.00)" rx="2.7105263157894735"></rect>
        <rect width="80" height="5.421052631578947" x="760" y="317.2894736842105" stroke="none"
            fill="hsla(0, 0%, 0%, 1.00)" rx="2.7105263157894735"></rect>
        <rect width="5.421052631578947" height="80" x="797.2894736842105" y="280" stroke="none"
            fill="hsla(0, 0%, 0%, 1.00)" rx="2.7105263157894735"></rect>
        <rect width="80" height="5.421052631578947" x="-40" y="477.2894736842105" stroke="none"
            fill="hsla(0, 0%, 0%, 1.00)" rx="2.7105263157894735"></rect>
        <rect width="5.421052631578947" height="80" x="-2.7105263157894735" y="440" stroke="none"
            fill="hsla(0, 0%, 0%, 1.00)" rx="2.7105263157894735"></rect>
        <rect width="80" height="5.421052631578947" x="120" y="477.2894736842105" stroke="none"
            fill="hsla(0, 0%, 0%, 1.00)" rx="2.7105263157894735"></rect>
        <rect width="5.421052631578947" height="80" x="157.28947368421052" y="440" stroke="none"
            fill="hsla(0, 0%, 0%, 1.00)" rx="2.7105263157894735"></rect>
        <rect width="80" height="5.421052631578947" x="280" y="477.2894736842105" stroke="none"
            fill="hsla(0, 0%, 0%, 1.00)" rx="2.7105263157894735"></rect>
        <rect width="5.421052631578947" height="80" x="317.2894736842105" y="440" stroke="none"
            fill="hsla(0, 0%, 0%, 1.00)" rx="2.7105263157894735"></rect>
        <rect width="80" height="5.421052631578947" x="440" y="477.2894736842105" stroke="none"
            fill="hsla(0, 0%, 0%, 1.00)" rx="2.7105263157894735"></rect>
        <rect width="5.421052631578947" height="80" x="477.2894736842105" y="440" stroke="none"
            fill="hsla(0, 0%, 0%, 1.00)" rx="2.7105263157894735"></rect>
        <rect width="80" height="5.421052631578947" x="600" y="477.2894736842105" stroke="none"
            fill="hsla(0, 0%, 0%, 1.00)" rx="2.7105263157894735"></rect>
        <rect width="5.421052631578947" height="80" x="637.2894736842105" y="440" stroke="none"
            fill="hsla(0, 0%, 0%, 1.00)" rx="2.7105263157894735"></rect>
        <rect width="80" height="5.421052631578947" x="760" y="477.2894736842105" stroke="none"
            fill="hsla(0, 0%, 0%, 1.00)" rx="2.7105263157894735"></rect>
        <rect width="5.421052631578947" height="80" x="797.2894736842105" y="440" stroke="none"
            fill="hsla(0, 0%, 0%, 1.00)" rx="2.7105263157894735"></rect>
        <rect width="80" height="5.421052631578947" x="-40" y="637.2894736842105" stroke="none"
            fill="hsla(0, 0%, 0%, 1.00)" rx="2.7105263157894735"></rect>
        <rect width="5.421052631578947" height="80" x="-2.7105263157894735" y="600" stroke="none"
            fill="hsla(0, 0%, 0%, 1.00)" rx="2.7105263157894735"></rect>
        <rect width="80" height="5.421052631578947" x="120" y="637.2894736842105" stroke="none"
            fill="hsla(0, 0%, 0%, 1.00)" rx="2.7105263157894735"></rect>
        <rect width="5.421052631578947" height="80" x="157.28947368421052" y="600" stroke="none"
            fill="hsla(0, 0%, 0%, 1.00)" rx="2.7105263157894735"></rect>
        <rect width="80" height="5.421052631578947" x="280" y="637.2894736842105" stroke="none"
            fill="hsla(0, 0%, 0%, 1.00)" rx="2.7105263157894735"></rect>
        <rect width="5.421052631578947" height="80" x="317.2894736842105" y="600" stroke="none"
            fill="hsla(0, 0%, 0%, 1.00)" rx="2.7105263157894735"></rect>
        <rect width="80" height="5.421052631578947" x="440" y="637.2894736842105" stroke="none"
            fill="hsla(0, 0%, 0%, 1.00)" rx="2.7105263157894735"></rect>
        <rect width="5.421052631578947" height="80" x="477.2894736842105" y="600" stroke="none"
            fill="hsla(0, 0%, 0%, 1.00)" rx="2.7105263157894735"></rect>
        <rect width="80" height="5.421052631578947" x="600" y="637.2894736842105" stroke="none"
            fill="hsla(0, 0%, 0%, 1.00)" rx="2.7105263157894735"></rect>
        <rect width="5.421052631578947" height="80" x="637.2894736842105" y="600" stroke="none"
            fill="hsla(0, 0%, 0%, 1.00)" rx="2.7105263157894735"></rect>
        <rect width="80" height="5.421052631578947" x="760" y="637.2894736842105" stroke="none"
            fill="hsla(0, 0%, 0%, 1.00)" rx="2.7105263157894735"></rect>
        <rect width="5.421052631578947" height="80" x="797.2894736842105" y="600" stroke="none"
            fill="hsla(0, 0%, 0%, 1.00)" rx="2.7105263157894735"></rect>
        <rect width="80" height="5.421052631578947" x="-40" y="797.2894736842105" stroke="none"
            fill="hsla(0, 0%, 0%, 1.00)" rx="2.7105263157894735"></rect>
        <rect width="5.421052631578947" height="80" x="-2.7105263157894735" y="760" stroke="none"
            fill="hsla(0, 0%, 0%, 1.00)" rx="2.7105263157894735"></rect>
        <rect width="80" height="5.421052631578947" x="120" y="797.2894736842105" stroke="none"
            fill="hsla(0, 0%, 0%, 1.00)" rx="2.7105263157894735"></rect>
        <rect width="5.421052631578947" height="80" x="157.28947368421052" y="760" stroke="none"
            fill="hsla(0, 0%, 0%, 1.00)" rx="2.7105263157894735"></rect>
        <rect width="80" height="5.421052631578947" x="280" y="797.2894736842105" stroke="none"
            fill="hsla(0, 0%, 0%, 1.00)" rx="2.7105263157894735"></rect>
        <rect width="5.421052631578947" height="80" x="317.2894736842105" y="760" stroke="none"
            fill="hsla(0, 0%, 0%, 1.00)" rx="2.7105263157894735"></rect>
        <rect width="80" height="5.421052631578947" x="440" y="797.2894736842105" stroke="none"
            fill="hsla(0, 0%, 0%, 1.00)" rx="2.7105263157894735"></rect>
        <rect width="5.421052631578947" height="80" x="477.2894736842105" y="760" stroke="none"
            fill="hsla(0, 0%, 0%, 1.00)" rx="2.7105263157894735"></rect>
        <rect width="80" height="5.421052631578947" x="600" y="797.2894736842105" stroke="none"
            fill="hsla(0, 0%, 0%, 1.00)" rx="2.7105263157894735"></rect>
        <rect width="5.421052631578947" height="80" x="637.2894736842105" y="760" stroke="none"
            fill="hsla(0, 0%, 0%, 1.00)" rx="2.7105263157894735"></rect>
        <rect width="80" height="5.421052631578947" x="760" y="797.2894736842105" stroke="none"
            fill="hsla(0, 0%, 0%, 1.00)" rx="2.7105263157894735"></rect>
        <rect width="5.421052631578947" height="80" x="797.2894736842105" y="760" stroke="none"
            fill="hsla(0, 0%, 0%, 1.00)" rx="2.7105263157894735"></rect>
    </g>
</svg>